<svg width="1920" height="275" viewBox="0 0 1920 275" fill="none" xmlns="http://www.w3.org/2000/svg">
<rect width="1920" height="275" fill="#0F0C0A"/>
<path d="M736.05 181.1C720.3 181.1 707.25 175.85 696.9 165.35C686.55 154.85 681.45 141.95 681.45 126.5C681.45 111.05 686.55 98 696.9 87.65C707.25 77.15 720.3 71.9 736.05 71.9C755.1 71.9 772.2 81.5 781.2 96.65L763.35 107C758.1 97.55 748.05 92 736.05 92C725.85 92 717.6 95.15 711.3 101.6C705.15 108.05 702 116.3 702 126.5C702 136.55 705.15 144.8 711.3 151.25C717.6 157.7 725.85 160.85 736.05 160.85C748.05 160.85 758.4 155.15 763.35 146L781.2 156.35C772.2 171.5 755.25 181.1 736.05 181.1ZM853.616 115.7V74H874.166V179H853.616V135.5H814.616V179H793.916V74H814.616V115.7H853.616ZM893.672 179V74H914.372V179H893.672ZM963.509 74H1040.76V93.8H1012.41V179H991.709V93.8H963.509V74ZM1052.31 179V74H1073.01V179H1052.31ZM1130.1 65.75L1124.1 56.6L1117.95 65.75H1100.1L1114.8 45.5H1133.1L1147.95 65.75H1130.1ZM1113.15 135.65V159.2H1157.4V179H1092.45V74H1156.65V93.8H1113.15V116.15H1152.9V135.65H1113.15ZM1141.8 50.75L1153.05 31.7H1174.65L1159.2 50.75H1141.8ZM1164.19 74H1241.44V93.8H1213.09V179H1192.39V93.8H1164.19V74Z" fill="white"/>
</svg>
