<svg width="1920" height="275" viewBox="0 0 1920 275" fill="none" xmlns="http://www.w3.org/2000/svg">
<rect width="1920" height="275" fill="#0F0C0A"/>
<path d="M852.45 74V159.2H892.5V179H831.75V74H852.45ZM904.26 179V74H924.96V179H904.26ZM978.635 181.1C957.785 181.1 943.235 171.2 937.385 155.15L955.085 144.8C959.135 155.45 967.235 160.85 979.235 160.85C990.785 160.85 996.035 156.2 996.035 149.75C996.035 146 994.385 143.15 991.085 141.2C987.785 139.1 981.935 136.85 973.385 134.45C963.935 131.6 958.235 129.35 951.635 124.7C945.185 119.9 941.735 112.7 941.735 103.1C941.735 93.65 945.035 86 951.785 80.45C958.535 74.75 966.785 71.9 976.235 71.9C993.185 71.9 1006.54 80.6 1013.74 95.45L996.335 105.5C992.135 96.5 985.385 92 976.235 92C967.685 92 962.435 96.35 962.435 102.5C962.435 105.8 963.785 108.5 966.485 110.6C969.335 112.55 974.585 114.8 982.385 117.2L989.585 119.6C991.235 120.05 993.485 120.95 996.335 122.15C999.185 123.2 1001.44 124.25 1002.94 125.3C1006.09 127.25 1010.89 131 1012.84 134.6C1015.09 138.2 1016.74 143.45 1016.74 149.45C1016.74 159.2 1013.14 166.85 1006.09 172.55C999.035 178.25 989.885 181.1 978.635 181.1ZM1018.63 74H1095.88V93.8H1067.53V179H1046.83V93.8H1018.63V74Z" fill="white"/>
</svg>
