<svg width="1920" height="275" viewBox="0 0 1920 275" fill="none" xmlns="http://www.w3.org/2000/svg">
<rect width="1920" height="275" fill="#0F0C0A"/>
<path d="M544.45 74H621.7V93.8H593.35V179H572.65V93.8H544.45V74ZM713.206 179H690.856L669.706 142.55H653.956V179H633.256V74H675.256C685.006 74 693.256 77.45 700.006 84.2C706.756 90.95 710.206 99.2 710.206 108.8C710.206 121.85 702.106 133.85 689.956 139.4L713.206 179ZM675.256 93.35H653.956V124.4H675.256C683.056 124.4 689.506 117.35 689.506 108.8C689.506 100.25 683.056 93.35 675.256 93.35ZM815.395 179H792.895L786.595 160.1H744.745L738.445 179H716.095L752.845 74H778.495L815.395 179ZM765.745 97.85L751.345 140.75H780.145L765.745 97.85ZM886.34 138.05V74H907.04V179H891.29L846.29 114.8V179H825.59V74H841.34L886.34 138.05ZM976.918 122.6H1029.57V130.7C1029.57 145.7 1024.77 157.85 1015.17 167.15C1005.57 176.45 993.118 181.1 977.968 181.1C961.768 181.1 948.268 175.85 937.618 165.35C926.968 154.7 921.718 141.8 921.718 126.65C921.718 111.35 926.968 98.45 937.468 87.8C948.118 77.15 961.168 71.9 976.768 71.9C996.418 71.9 1013.52 81.5 1022.52 96.35L1004.82 106.55C999.868 98 989.068 92 976.618 92C966.568 92 958.318 95.3 951.868 101.9C945.418 108.35 942.268 116.6 942.268 126.65C942.268 136.55 945.568 144.8 952.018 151.25C958.618 157.7 967.318 160.85 978.118 160.85C994.168 160.85 1004.97 153.35 1008.72 140.9H976.918V122.6ZM1131.59 181.1C1115.84 181.1 1102.79 175.85 1092.44 165.35C1082.09 154.85 1076.99 141.95 1076.99 126.5C1076.99 111.05 1082.09 98 1092.44 87.65C1102.79 77.15 1115.84 71.9 1131.59 71.9C1150.64 71.9 1167.74 81.5 1176.74 96.65L1158.89 107C1153.64 97.55 1143.59 92 1131.59 92C1121.39 92 1113.14 95.15 1106.84 101.6C1100.69 108.05 1097.54 116.3 1097.54 126.5C1097.54 136.55 1100.69 144.8 1106.84 151.25C1113.14 157.7 1121.39 160.85 1131.59 160.85C1143.59 160.85 1153.94 155.15 1158.89 146L1176.74 156.35C1167.74 171.5 1150.79 181.1 1131.59 181.1ZM1249.16 115.7V74H1269.71V179H1249.16V135.5H1210.16V179H1189.46V74H1210.16V115.7H1249.16ZM1335.71 65.75H1322.96C1322.96 57.2 1324.31 55.7 1328.21 53.75C1328.21 53.75 1329.71 52.7 1329.56 52.85C1330.31 52.4 1331.36 51.35 1331.36 49.7C1331.36 48.8 1330.76 47.9 1328.96 47.9C1326.56 47.9 1324.46 48.5 1323.11 52.25L1311.86 48.05C1315.16 40.55 1320.86 36.8 1329.26 36.8C1337.81 36.8 1344.26 41.3 1344.26 49.25C1344.26 55.1 1341.41 58.7 1338.26 60.35C1336.31 61.25 1335.26 62.15 1335.71 65.75ZM1328.36 181.1C1316.66 181.1 1307.06 177.8 1299.56 171.2C1292.06 164.6 1288.31 155.75 1288.31 144.65V74H1308.86V143C1308.86 153.95 1315.01 160.85 1328.36 160.85C1341.71 160.85 1347.86 153.95 1347.86 143V74H1368.56V144.65C1368.56 155.75 1364.81 164.6 1357.31 171.2C1349.81 177.8 1340.21 181.1 1328.36 181.1Z" fill="white"/>
</svg>
