<svg width="1920" height="275" viewBox="0 0 1920 275" fill="none" xmlns="http://www.w3.org/2000/svg">
<rect width="1920" height="275" fill="#0F0C0A"/>
<path d="M747.95 74V93.8H705.95V118.7H746.75V138.5H705.95V179H685.25V74H747.95ZM851.383 165.35C840.733 175.85 827.833 181.1 812.683 181.1C797.533 181.1 784.633 175.85 773.983 165.35C763.483 154.7 758.233 141.8 758.233 126.5C758.233 111.2 763.483 98.3 773.983 87.8C784.633 77.15 797.533 71.9 812.683 71.9C827.833 71.9 840.733 77.15 851.383 87.8C862.033 98.3 867.283 111.2 867.283 126.5C867.283 141.8 862.033 154.7 851.383 165.35ZM788.533 151.25C794.983 157.7 803.083 160.85 812.683 160.85C822.283 160.85 830.383 157.7 836.833 151.25C843.283 144.8 846.583 136.55 846.583 126.5C846.583 116.45 843.283 108.2 836.833 101.75C830.383 95.3 822.283 92 812.683 92C803.083 92 794.983 95.3 788.533 101.75C782.083 108.2 778.783 116.45 778.783 126.5C778.783 136.55 782.083 144.8 788.533 151.25ZM970.182 165.35C959.532 175.85 946.632 181.1 931.482 181.1C916.332 181.1 903.432 175.85 892.782 165.35C882.282 154.7 877.032 141.8 877.032 126.5C877.032 111.2 882.282 98.3 892.782 87.8C903.432 77.15 916.332 71.9 931.482 71.9C946.632 71.9 959.532 77.15 970.182 87.8C980.832 98.3 986.082 111.2 986.082 126.5C986.082 141.8 980.832 154.7 970.182 165.35ZM907.332 151.25C913.782 157.7 921.882 160.85 931.482 160.85C941.082 160.85 949.182 157.7 955.632 151.25C962.082 144.8 965.382 136.55 965.382 126.5C965.382 116.45 962.082 108.2 955.632 101.75C949.182 95.3 941.082 92 931.482 92C921.882 92 913.782 95.3 907.332 101.75C900.882 108.2 897.582 116.45 897.582 126.5C897.582 136.55 900.882 144.8 907.332 151.25ZM992.831 74H1070.08V93.8H1041.73V179H1021.03V93.8H992.831V74ZM1102.34 135.65V159.2H1146.59V179H1081.64V74H1145.84V93.8H1102.34V116.15H1142.09V135.65H1102.34ZM1241.13 179H1218.78L1197.63 142.55H1181.88V179H1161.18V74H1203.18C1212.93 74 1221.18 77.45 1227.93 84.2C1234.68 90.95 1238.13 99.2 1238.13 108.8C1238.13 121.85 1230.03 133.85 1217.88 139.4L1241.13 179ZM1203.18 93.35H1181.88V124.4H1203.18C1210.98 124.4 1217.43 117.35 1217.43 108.8C1217.43 100.25 1210.98 93.35 1203.18 93.35Z" fill="white"/>
</svg>
