<svg width="1920" height="275" viewBox="0 0 1920 275" fill="none" xmlns="http://www.w3.org/2000/svg">
<rect width="1920" height="275" fill="#0F0C0A"/>
<path d="M850.7 74H872V179H851.45V110.9L821.9 159.65H819.5L789.95 111.05V179H769.25V74H790.55L820.7 123.65L850.7 74ZM912.264 135.65V159.2H956.514V179H891.564V74H955.764V93.8H912.264V116.15H952.014V135.65H912.264ZM1031.86 138.05V74H1052.56V179H1036.81L991.805 114.8V179H971.105V74H986.855L1031.86 138.05ZM1111.18 181.1C1099.48 181.1 1089.88 177.8 1082.38 171.2C1074.88 164.6 1071.13 155.75 1071.13 144.65V74H1091.68V143C1091.68 153.95 1097.83 160.85 1111.18 160.85C1124.53 160.85 1130.68 153.95 1130.68 143V74H1151.38V144.65C1151.38 155.75 1147.63 164.6 1140.13 171.2C1132.63 177.8 1123.03 181.1 1111.18 181.1Z" fill="white"/>
</svg>
