<svg width="1920" height="275" viewBox="0 0 1920 275" fill="none" xmlns="http://www.w3.org/2000/svg">
<rect width="1920" height="275" fill="#0F0C0A"/>
<path d="M513.35 179H487.7L452.45 74H474.95L500.6 154.7L526.1 74H548.75L513.35 179ZM596.519 65.75L590.519 56.6L584.369 65.75H566.519L581.219 45.5H599.519L614.369 65.75H596.519ZM579.569 135.65V159.2H623.819V179H558.869V74H623.069V93.8H579.569V116.15H619.319V135.65H579.569ZM626.669 50.75H609.269L593.819 31.7H615.419L626.669 50.75ZM725.71 181.1C709.96 181.1 696.91 175.85 686.56 165.35C676.21 154.85 671.11 141.95 671.11 126.5C671.11 111.05 676.21 98 686.56 87.65C696.91 77.15 709.96 71.9 725.71 71.9C744.76 71.9 761.86 81.5 770.86 96.65L753.01 107C747.76 97.55 737.71 92 725.71 92C715.51 92 707.26 95.15 700.96 101.6C694.81 108.05 691.66 116.3 691.66 126.5C691.66 136.55 694.81 144.8 700.96 151.25C707.26 157.7 715.51 160.85 725.71 160.85C737.71 160.85 748.06 155.15 753.01 146L770.86 156.35C761.86 171.5 744.91 181.1 725.71 181.1ZM843.276 115.7V74H863.826V179H843.276V135.5H804.276V179H783.576V74H804.276V115.7H843.276ZM913.782 64.55H932.382L949.032 44H925.782L913.782 64.55ZM922.482 181.1C910.782 181.1 901.182 177.8 893.682 171.2C886.182 164.6 882.432 155.75 882.432 144.65V74H902.982V143C902.982 153.95 909.132 160.85 922.482 160.85C935.832 160.85 941.982 153.95 941.982 143V74H962.682V144.65C962.682 155.75 958.932 164.6 951.432 171.2C943.932 177.8 934.332 181.1 922.482 181.1ZM1042.08 138.05V74H1062.78V179H1047.03L1002.03 114.8V179H981.33V74H997.08L1042.08 138.05ZM1132.66 122.6H1185.31V130.7C1185.31 145.7 1180.51 157.85 1170.91 167.15C1161.31 176.45 1148.86 181.1 1133.71 181.1C1117.51 181.1 1104.01 175.85 1093.36 165.35C1082.71 154.7 1077.46 141.8 1077.46 126.65C1077.46 111.35 1082.71 98.45 1093.21 87.8C1103.86 77.15 1116.91 71.9 1132.51 71.9C1152.16 71.9 1169.26 81.5 1178.26 96.35L1160.56 106.55C1155.61 98 1144.81 92 1132.36 92C1122.31 92 1114.06 95.3 1107.61 101.9C1101.16 108.35 1098.01 116.6 1098.01 126.65C1098.01 136.55 1101.31 144.8 1107.76 151.25C1114.36 157.7 1123.06 160.85 1133.86 160.85C1149.91 160.85 1160.71 153.35 1164.46 140.9H1132.66V122.6ZM1229.73 74H1306.98V93.8H1278.63V179H1257.93V93.8H1229.73V74ZM1374.19 64.55L1367.74 54.8L1361.14 64.55H1341.94L1357.84 42.8H1377.49L1393.39 64.55H1374.19ZM1329.49 87.8C1340.14 77.15 1353.04 71.9 1368.19 71.9C1383.34 71.9 1396.24 77.15 1406.89 87.8C1417.54 98.3 1422.79 111.2 1422.79 126.5C1422.79 141.8 1417.54 154.7 1406.89 165.35C1396.24 175.85 1383.34 181.1 1368.19 181.1C1353.04 181.1 1340.14 175.85 1329.49 165.35C1318.99 154.7 1313.74 141.8 1313.74 126.5C1313.74 111.2 1318.99 98.3 1329.49 87.8ZM1344.04 151.25C1350.49 157.7 1358.59 160.85 1368.19 160.85C1377.79 160.85 1385.89 157.7 1392.34 151.25C1398.79 144.8 1402.09 136.55 1402.09 126.5C1402.09 116.45 1398.79 108.2 1392.34 101.75C1385.89 95.3 1377.79 92 1368.19 92C1358.59 92 1350.49 95.3 1344.04 101.75C1337.59 108.2 1334.29 116.45 1334.29 126.5C1334.29 136.55 1337.59 144.8 1344.04 151.25ZM1437.34 179V74H1458.04V179H1437.34Z" fill="white"/>
</svg>
