<svg width="1920" height="275" viewBox="0 0 1920 275" fill="none" xmlns="http://www.w3.org/2000/svg">
<rect width="1920" height="275" fill="#0F0C0A"/>
<path d="M494.2 124.55C503.35 129.8 508 137.9 508 148.55C508 157.4 504.85 164.75 498.55 170.45C492.25 176.15 484.45 179 475.3 179H430.75V74H472.15C481.15 74 488.65 76.85 494.8 82.4C500.95 87.95 504.1 95 504.1 103.55C504.1 112.25 500.8 119.3 494.2 124.55ZM472.15 93.35H451.45V116.45H472.15C478.6 116.45 483.4 111.5 483.4 104.9C483.4 98.3 478.75 93.35 472.15 93.35ZM451.45 159.65H475.3C482.35 159.65 487.45 154.4 487.45 147.2C487.45 140.15 482.35 134.9 475.3 134.9H451.45V159.65ZM611.57 179H589.07L582.77 160.1H540.92L534.62 179H512.27L549.02 74H574.67L611.57 179ZM561.92 97.85L547.52 140.75H576.32L561.92 97.85ZM567.47 65.75L561.47 56.6L555.32 65.75H537.47L552.17 45.5H570.47L585.32 65.75H567.47ZM579.17 50.75L590.42 31.7H612.02L596.57 50.75H579.17ZM606.348 74H683.598V93.8H655.248V179H634.548V93.8H606.348V74ZM737.904 74H779.604C794.004 74 806.004 79.1 815.604 89.15C825.354 99.2 830.154 111.65 830.154 126.5C830.154 141.35 825.354 153.8 815.604 163.85C806.004 173.9 794.004 179 779.604 179H737.904V136.55H729.054V119.3H737.904V74ZM758.604 159.2H779.604C788.754 159.2 796.104 156.2 801.804 150.2C807.504 144.05 810.354 136.25 810.354 126.5C810.354 116.75 807.504 108.95 801.804 102.95C796.104 96.8 788.754 93.8 779.604 93.8H758.604V119.3H779.904V136.55H758.604V159.2ZM900.811 64.55L894.811 55.4L888.661 64.55H870.811L885.511 44.3H903.811L918.661 64.55H900.811ZM855.811 87.8C866.461 77.15 879.361 71.9 894.511 71.9C909.661 71.9 922.561 77.15 933.211 87.8C943.861 98.3 949.111 111.2 949.111 126.5C949.111 141.8 943.861 154.7 933.211 165.35C922.561 175.85 909.661 181.1 894.511 181.1C879.361 181.1 866.461 175.85 855.811 165.35C845.311 154.7 840.061 141.8 840.061 126.5C840.061 111.2 845.311 98.3 855.811 87.8ZM870.361 151.25C876.811 157.7 884.911 160.85 894.511 160.85C904.111 160.85 912.211 157.7 918.661 151.25C925.111 144.8 928.411 136.55 928.411 126.5C928.411 116.45 925.111 108.2 918.661 101.75C912.211 95.3 904.111 92 894.511 92C884.911 92 876.811 95.3 870.361 101.75C863.911 108.2 860.611 116.45 860.611 126.5C860.611 136.55 863.911 144.8 870.361 151.25ZM894.361 213.2C887.911 213.2 882.511 207.95 882.511 201.65C882.511 195.35 887.911 189.95 894.361 189.95C900.961 189.95 906.361 195.35 906.361 201.65C906.361 207.95 900.961 213.2 894.361 213.2ZM1024.41 138.05V74H1045.11V179H1029.36L984.36 114.8V179H963.66V74H979.41L1024.41 138.05ZM1114.99 122.6H1167.64V130.7C1167.64 145.7 1162.84 157.85 1153.24 167.15C1143.64 176.45 1131.19 181.1 1116.04 181.1C1099.84 181.1 1086.34 175.85 1075.69 165.35C1065.04 154.7 1059.79 141.8 1059.79 126.65C1059.79 111.35 1065.04 98.45 1075.54 87.8C1086.19 77.15 1099.24 71.9 1114.84 71.9C1134.49 71.9 1151.59 81.5 1160.59 96.35L1142.89 106.55C1137.94 98 1127.14 92 1114.69 92C1104.64 92 1096.39 95.3 1089.94 101.9C1083.49 108.35 1080.34 116.6 1080.34 126.65C1080.34 136.55 1083.64 144.8 1090.09 151.25C1096.69 157.7 1105.39 160.85 1116.19 160.85C1132.24 160.85 1143.04 153.35 1146.79 140.9H1114.99V122.6ZM1255.71 181.1C1234.86 181.1 1220.31 171.2 1214.46 155.15L1232.16 144.8C1236.21 155.45 1244.31 160.85 1256.31 160.85C1267.86 160.85 1273.11 156.2 1273.11 149.75C1273.11 146 1271.46 143.15 1268.16 141.2C1264.86 139.1 1259.01 136.85 1250.46 134.45C1241.01 131.6 1235.31 129.35 1228.71 124.7C1222.26 119.9 1218.81 112.7 1218.81 103.1C1218.81 93.65 1222.11 86 1228.86 80.45C1235.61 74.75 1243.86 71.9 1253.31 71.9C1270.26 71.9 1283.61 80.6 1290.81 95.45L1273.41 105.5C1269.21 96.5 1262.46 92 1253.31 92C1244.76 92 1239.51 96.35 1239.51 102.5C1239.51 105.8 1240.86 108.5 1243.56 110.6C1246.41 112.55 1251.66 114.8 1259.46 117.2L1266.66 119.6C1268.31 120.05 1270.56 120.95 1273.41 122.15C1276.26 123.2 1278.51 124.25 1280.01 125.3C1283.16 127.25 1287.96 131 1289.91 134.6C1292.16 138.2 1293.81 143.45 1293.81 149.45C1293.81 159.2 1290.21 166.85 1283.16 172.55C1276.11 178.25 1266.96 181.1 1255.71 181.1ZM1353.96 65.75H1341.21C1341.21 57.2 1342.56 55.7 1346.46 53.75C1346.46 53.75 1347.96 52.7 1347.81 52.85C1348.56 52.4 1349.61 51.35 1349.61 49.7C1349.61 48.8 1349.01 47.9 1347.21 47.9C1344.81 47.9 1342.71 48.5 1341.36 52.25L1330.11 48.05C1333.41 40.55 1339.11 36.8 1347.51 36.8C1356.06 36.8 1362.51 41.3 1362.51 49.25C1362.51 55.1 1359.66 58.7 1356.51 60.35C1354.56 61.25 1353.51 62.15 1353.96 65.75ZM1397.31 179H1374.81L1368.51 160.1H1326.66L1320.36 179H1298.01L1334.76 74H1360.41L1397.31 179ZM1347.66 97.85L1333.26 140.75H1362.06L1347.66 97.85ZM1468.26 138.05V74H1488.96V179H1473.21L1428.21 114.8V179H1407.51V74H1423.26L1468.26 138.05Z" fill="white"/>
</svg>
